<svg width="40" height="40" viewBox="0 0 40 40" fill="none" xmlns="http://www.w3.org/2000/svg">
<path d="M10.0765 5.81654L11.7305 4.91377C13.2786 4.06878 15.2071 4.5813 16.2353 6.11099L18.2826 9.15854C19.1749 10.4853 19.1623 12.2513 18.2516 13.5233L15.7209 17.0631C16.2519 18.787 17.1768 20.4062 18.4973 21.9203C19.7577 23.3885 21.2999 24.589 23.0326 25.4506L26.5176 23.4887C27.8377 22.7471 29.4788 22.9925 30.5897 24.0972L33.177 26.6706C34.4703 27.9557 34.6818 30.0298 33.6748 31.5241L32.5951 33.1258C31.5207 34.7197 29.7128 35.5724 27.8459 35.362C23.4408 34.8669 18.8794 31.7558 14.16 26.029C9.43375 20.2933 7.15434 15.0907 7.31975 10.4285C7.38959 8.46643 8.43958 6.71092 10.0798 5.81591L10.0765 5.81654Z" fill="#696969"/>
</svg>
